<svg width="26" height="26" viewBox="0 0 26 26" fill="none" xmlns="http://www.w3.org/2000/svg">
<g clip-path="url(#clip0)">
<path d="M20.9625 1.8599C20.4024 1.27544 19.5988 0.910156 18.7464 0.910156H7.25216C6.37548 0.910156 5.59621 1.27544 5.0361 1.83554C4.476 2.39565 4.11072 3.19927 4.11072 4.0516V21.9505C4.11072 22.8272 4.476 23.6065 5.0361 24.1666C5.59621 24.7267 6.39983 25.092 7.25216 25.092H18.7464C19.6231 25.092 20.4024 24.7267 20.9625 24.1666C21.5226 23.6065 21.8879 22.8029 21.8879 21.9505V4.07595C21.8879 3.19927 21.5226 2.42 20.9625 1.8599ZM20.6703 21.9505C20.6703 22.4863 20.4511 22.949 20.1102 23.3143C19.7692 23.6552 19.2822 23.8744 18.7464 23.8744H7.25216C6.71641 23.8744 6.25372 23.6552 5.88844 23.3143C5.5475 22.9733 5.32833 22.4863 5.32833 21.9505V4.07595C5.32833 3.5402 5.5475 3.07751 5.88844 2.71223C6.22937 2.37129 6.71641 2.15212 7.25216 2.15212H18.7464C19.2822 2.15212 19.7449 2.37129 20.1102 2.71223C20.4511 3.05316 20.6703 3.5402 20.6703 4.07595V21.9505Z" fill="white"/>
<path d="M12.999 17.7152C13.3487 17.7152 13.6322 17.4317 13.6322 17.082C13.6322 16.7323 13.3487 16.4489 12.999 16.4489C12.6493 16.4489 12.3658 16.7323 12.3658 17.082C12.3658 17.4317 12.6493 17.7152 12.999 17.7152Z" fill="white"/>
<path d="M13 11.308C11.4171 11.308 9.95597 11.9655 8.90882 12.9883C7.86167 14.0354 7.22852 15.4722 7.22852 17.0795C7.22852 18.6624 7.88603 20.1235 8.90882 21.1706C9.95597 22.2178 11.3928 22.851 13 22.851C14.5829 22.851 16.044 22.1934 17.0912 21.1706C18.1383 20.1235 18.7715 18.6867 18.7715 17.0795C18.7715 15.4966 18.114 14.0354 17.0912 12.9883C16.044 11.9655 14.5829 11.308 13 11.308ZM16.2145 20.294C15.3865 21.1219 14.2663 21.6333 13 21.6333C11.7337 21.6333 10.6135 21.1219 9.7855 20.294C8.95753 19.466 8.44613 18.3458 8.44613 17.0795C8.44613 15.8132 8.95753 14.6929 9.7855 13.865C10.6135 13.037 11.7337 12.5256 13 12.5256C14.242 12.5256 15.3865 13.037 16.2145 13.865C17.0425 14.6929 17.5539 15.8132 17.5539 17.0795C17.5295 18.3214 17.0425 19.466 16.2145 20.294Z" fill="white"/>
<path d="M12.9992 13.7703C12.0738 13.7703 11.2458 14.1355 10.6613 14.7444C10.0525 15.3532 9.68726 16.1811 9.68726 17.0822C9.68726 18.0076 10.0525 18.8355 10.6613 19.42C11.2702 20.0288 12.0981 20.3941 12.9992 20.3941C13.9246 20.3941 14.7525 20.0288 15.337 19.42C15.9458 18.8112 16.3111 17.9832 16.3111 17.0822C16.3111 16.1568 15.9458 15.3288 15.337 14.7444C14.7525 14.1355 13.9246 13.7703 12.9992 13.7703ZM14.4847 18.5677C14.095 18.9573 13.5836 19.1765 12.9992 19.1765C12.4147 19.1765 11.9033 18.9329 11.5137 18.5677C11.124 18.178 10.9049 17.6666 10.9049 17.0822C10.9049 16.4977 11.1484 15.9863 11.5137 15.5967C11.9033 15.207 12.4147 14.9879 12.9992 14.9879C13.5836 14.9879 14.095 15.2314 14.4847 15.5967C14.8743 15.9863 15.0935 16.4977 15.0935 17.0822C15.0935 17.6666 14.8499 18.178 14.4847 18.5677Z" fill="white"/>
<path d="M12.9987 10.6002C14.0215 10.6002 14.9469 10.1862 15.6288 9.50438C16.3106 8.82252 16.7246 7.89713 16.7246 6.87434C16.7246 5.85154 16.3106 4.92615 15.6288 4.24429C14.9469 3.56243 14.0215 3.14844 12.9987 3.14844C11.9759 3.14844 11.0505 3.56243 10.3687 4.24429C9.68682 4.92615 9.27283 5.85154 9.27283 6.87434C9.27283 7.89713 9.68682 8.82252 10.3687 9.50438C11.0505 10.1862 11.9759 10.6002 12.9987 10.6002ZM11.2454 5.12097C11.6837 4.68263 12.3169 4.3904 12.9987 4.3904C13.6806 4.3904 14.3137 4.65828 14.7521 5.12097C15.1904 5.55931 15.4827 6.19247 15.4827 6.87434C15.4827 7.5562 15.2148 8.18936 14.7521 8.6277C14.3137 9.06604 13.6806 9.35827 12.9987 9.35827C12.3169 9.35827 11.6837 9.0904 11.2454 8.6277C10.807 8.18936 10.5148 7.5562 10.5148 6.87434C10.5148 6.19247 10.7827 5.58367 11.2454 5.12097Z" fill="white"/>
<path d="M12.999 8.31303C13.3886 8.31303 13.7296 8.14256 13.9974 7.89904C14.2653 7.63117 14.4114 7.29023 14.4114 6.90059C14.4114 6.51096 14.2409 6.17002 13.9974 5.90215C13.7296 5.63427 13.3886 5.48816 12.999 5.48816C12.6093 5.48816 12.2684 5.65863 12.0005 5.90215C11.7327 6.17002 11.5865 6.51096 11.5865 6.90059C11.5865 7.29023 11.7327 7.63117 12.0005 7.89904C12.2684 8.16692 12.6093 8.31303 12.999 8.31303ZM12.7068 6.60837C12.7798 6.53531 12.8772 6.48661 12.999 6.48661C13.0964 6.48661 13.2182 6.53531 13.2669 6.60837C13.3399 6.68142 13.3886 6.77883 13.3886 6.87624C13.3886 6.998 13.3399 7.09541 13.2669 7.14412C13.1938 7.21718 13.0964 7.26588 12.999 7.26588C12.8772 7.26588 12.7798 7.21718 12.7311 7.14412C12.658 7.07106 12.6093 6.97365 12.6093 6.87624C12.6093 6.77883 12.658 6.68142 12.7068 6.60837Z" fill="white"/>
</g>
<defs>
<clipPath id="clip0">
<rect width="24.1818" height="24.1818" fill="white" transform="translate(0.908203 0.910156)"/>
</clipPath>
</defs>
</svg>
