<svg width="26" height="26" fill="none" xmlns="http://www.w3.org/2000/svg"><g clip-path="url(#clip0)" fill="#fff"><path d="M20.962 1.86a3.092 3.092 0 00-2.216-.95H7.252c-.877 0-1.656.365-2.216.926a3.171 3.171 0 00-.925 2.216V21.95c0 .876.365 1.655.925 2.216.56.56 1.364.925 2.216.925h11.494c.877 0 1.656-.365 2.216-.925.56-.56.926-1.364.926-2.216V4.076c0-.877-.365-1.656-.926-2.216zm-.292 20.09c0 .536-.219.999-.56 1.364a1.93 1.93 0 01-1.364.56H7.252c-.536 0-.998-.219-1.364-.56a1.933 1.933 0 01-.56-1.363V4.076c0-.536.22-.998.56-1.364.341-.34.828-.56 1.364-.56h11.494c.536 0 .999.22 1.364.56.341.341.56.828.56 1.364V21.95z"/><path d="M12.999 17.715a.633.633 0 100-1.266.633.633 0 000 1.266z"/><path d="M13 11.308a5.885 5.885 0 00-4.091 1.68 5.738 5.738 0 00-1.68 4.091c0 1.583.657 3.044 1.68 4.092A5.738 5.738 0 0013 22.85a5.886 5.886 0 004.091-1.68 5.738 5.738 0 001.68-4.091 5.885 5.885 0 00-1.68-4.092A5.886 5.886 0 0013 11.308zm3.215 8.986A4.507 4.507 0 0113 21.634a4.507 4.507 0 01-3.214-1.34 4.507 4.507 0 01-1.34-3.215c0-1.266.512-2.386 1.34-3.214A4.507 4.507 0 0113 12.525a4.55 4.55 0 013.215 1.34 4.507 4.507 0 011.339 3.214c-.024 1.242-.511 2.387-1.34 3.215z"/><path d="M13 13.77c-.926 0-1.754.366-2.339.974a3.296 3.296 0 00-.974 2.338c0 .926.366 1.753.974 2.338a3.297 3.297 0 002.338.974c.926 0 1.753-.365 2.338-.974a3.297 3.297 0 00.974-2.338c0-.925-.365-1.753-.974-2.338a3.213 3.213 0 00-2.338-.974zm1.485 4.798c-.39.39-.901.608-1.486.608a2.163 2.163 0 01-1.485-.608 2.059 2.059 0 01-.61-1.486c0-.584.244-1.096.61-1.485.39-.39.9-.61 1.485-.61.585 0 1.096.244 1.486.61.39.39.609.9.609 1.485 0 .585-.244 1.096-.61 1.486zM12.999 10.6a3.7 3.7 0 002.63-1.096 3.7 3.7 0 000-5.26 3.7 3.7 0 00-5.26 0 3.7 3.7 0 000 5.26 3.7 3.7 0 002.63 1.096zm-1.754-5.479A2.506 2.506 0 0113 4.391c.682 0 1.315.267 1.753.73.438.438.73 1.071.73 1.753 0 .682-.267 1.315-.73 1.754a2.506 2.506 0 01-1.753.73 2.406 2.406 0 01-1.754-.73 2.506 2.506 0 01-.73-1.754c0-.682.268-1.29.73-1.753z"/><path d="M12.999 8.313c.39 0 .73-.17.998-.414a1.38 1.38 0 00.414-.998c0-.39-.17-.731-.414-.999A1.38 1.38 0 0013 5.488c-.39 0-.73.17-.998.414a1.38 1.38 0 00-.415.999c0 .39.147.73.415.998.267.268.608.414.998.414zm-.292-1.705a.403.403 0 01.292-.121c.097 0 .22.048.268.121a.39.39 0 01.122.268c0 .122-.05.22-.122.268a.391.391 0 01-.268.122c-.122 0-.22-.049-.268-.122a.39.39 0 01-.122-.268.51.51 0 01.098-.268z"/></g><defs><clipPath id="clip0"><path fill="#fff" transform="translate(.908 .91)" d="M0 0h24.182v24.182H0z"/></clipPath></defs></svg>