<svg width="16" height="22" fill="none" xmlns="http://www.w3.org/2000/svg"><path d="M9.714 21.714H6.286c-.8 0-1.715-.685-1.715-2.057v-2.4c0-1.143-.571-2.171-1.485-2.971C1.029 12.686 0 10.4 0 7.886.114 3.543 3.657.114 7.886 0c2.171 0 4.228.8 5.714 2.286C15.086 3.77 16 5.829 16 8c0 2.4-1.029 4.686-2.971 6.171-1.029.8-1.6 2.058-1.6 3.2V20c0 .914-.8 1.714-1.715 1.714zM8 1.143c-3.657 0-6.743 3.086-6.857 6.743 0 2.171.914 4.228 2.628 5.485 1.258 1.029 1.943 2.4 1.943 3.886v2.4c0 .229 0 .915.572.915h3.428c.343 0 .572-.23.572-.572v-2.628c0-1.486.8-3.086 2.057-4.115 1.6-1.257 2.514-3.2 2.514-5.257 0-1.829-.686-3.543-2.057-4.914C11.543 1.829 9.829 1.143 8 1.143z" fill="#2B2D3A"/></svg>